<?xml version="1.0" ?><svg enable-background="new 0 0 192 210.0428" id="viber" version="1.1" viewBox="0 0 192 210.0428" xml:space="preserve" xmlns="http://www.w3.org/2000/svg" xmlns:xlink="http://www.w3.org/1999/xlink"><g><path d="M116.004,0H75.996C34.0916,0,0,34.086,0,75.9804v36.0392c0,31.1992,19.172,59.2384,48,70.66v23.3632   c0,1.582,0.9316,3.0156,2.3788,3.6564c0.5196,0.2304,1.0724,0.3436,1.6212,0.3436c0.9728,0,1.9356-0.3552,2.6856-1.0348   L77.8788,188h38.1252C157.9084,188,192,153.914,192,112.0196V75.9804C192,34.086,157.9084,0,116.004,0z M184,112.0196   C184,149.504,153.498,180,116.004,180H76.336c-0.9924,0-1.9492,0.3672-2.6856,1.0352L56,197.0236v-17.1172   c0-1.6956-1.0684-3.2072-2.668-3.7696C26.2188,166.5508,8,140.7852,8,112.0196V75.9804C8,38.496,38.502,8,75.996,8h40.008   C153.498,8,184,38.496,184,75.9804V112.0196z"/><path d="M148.8632,121.9728l-24.586-15.9688c-2.6892-1.746-5.8864-2.34-9.0212-1.6916c-3.1368,0.6604-5.8304,2.512-7.5804,5.2112   l-1.156,1.7772c-10.6408-3.5156-22.3732-8.008-29.3964-28.34l2.908-2.5272h0.002c4.9904-4.34,5.5156-11.9336,1.174-16.9336   L61.9748,41.3748c-1.4496-1.6676-3.9768-1.8396-5.6448-0.3944l-12.074,10.496c-10.594,9.2072-5.6428,22.8284-4.0156,27.3048   c0.072,0.1992,0.16,0.3908,0.2636,0.578c0.42,0.754,10.4492,18.6488,26.6424,35.1448   c16.26,16.5624,45.6172,31.8592,46.5176,32.3044c3.3536,2.176,7.1252,3.2188,10.8556,3.2188   c6.5508,0,12.9764-3.2108,16.8064-9.1016l8.7132-13.4176C151.242,125.6524,150.7148,123.1756,148.8632,121.9728z    M134.6172,136.5664c-3.6056,5.5508-11.0508,7.1288-16.9336,3.336c-0.2928-0.1524-29.4552-15.34-44.828-31   C58.4884,94.2656,48.9492,78.008,47.6464,75.7384c-3.17-8.8828-2.6092-14.344,1.8556-18.2228l9.0584-7.8712L75.168,68.75   c1.4744,1.6952,1.3048,4.1756-0.3848,5.6444l-4.908,4.2656c-1.1956,1.0392-1.6664,2.6836-1.1996,4.1956   c8.3692,27.1912,24.6408,32.5312,36.5216,36.4336l1.7304,0.57c1.7308,0.586,3.6292-0.082,4.6192-1.6132l2.838-4.3672   c0.586-0.9024,1.4804-1.5156,2.5196-1.7344c1.0428-0.2224,2.1092-0.0156,3.0136,0.5704l21.2324,13.7892L134.6172,136.5664z"/><path d="M105.1288,64.9884c-2.1288-0.6136-4.3396,0.6248-4.9432,2.7536c-0.6036,2.1252,0.6288,4.336,2.752,4.9416   c5.9608,1.6952,10.7068,6.4532,12.3884,12.418c0.4964,1.7616,2.1016,2.914,3.848,2.914c0.3592,0,0.7244-0.0468,1.0876-0.1484   c2.1252-0.6016,3.3636-2.8088,2.7636-4.9376C120.5976,74.3124,113.7384,67.4376,105.1288,64.9884z"/><path d="M135.5704,88.8748c0.3592,0,0.7244-0.0468,1.088-0.1484c2.1268-0.6016,3.3632-2.8124,2.7636-4.9372   c-4.7188-16.7308-18.0372-30.0784-34.756-34.836c-2.1248-0.6132-4.338,0.6328-4.9412,2.754   c-0.6036,2.1248,0.6288,4.3356,2.7536,4.9412c14.0664,4,25.2736,15.2344,29.2444,29.3124   C132.2208,87.7228,133.8244,88.8748,135.5704,88.8748z"/><path d="M102.9432,30.328c-2.1288-0.6132-4.3396,0.6252-4.9432,2.754c-0.6036,2.1252,0.6288,4.336,2.752,4.9416   c23.838,6.7812,42.824,25.8124,49.5508,49.664c0.496,1.7616,2.1016,2.914,3.8476,2.914c0.3592,0,0.7248-0.0468,1.088-0.1484   c2.1248-0.6016,3.3632-2.8124,2.7636-4.9376C150.5272,59.0116,129.4296,37.8672,102.9432,30.328z"/></g></svg>